v 0.5 -0.5 0
v 0 0.5 0
v 0.472909 -0.5 0.16235
v 0.5 -0.5 0
v 0.472909 -0.5 0.16235
v 0 -0.5 0
v 0.472909 -0.5 0.16235
v 0 0.5 0
v 0.39457 -0.5 0.307106
v 0.472909 -0.5 0.16235
v 0.39457 -0.5 0.307106
v 0 -0.5 0
v 0.39457 -0.5 0.307106
v 0 0.5 0
v 0.273474 -0.5 0.418583
v 0.39457 -0.5 0.307106
v 0.273474 -0.5 0.418583
v 0 -0.5 0
v 0.273474 -0.5 0.418583
v 0 0.5 0
v 0.122743 -0.5 0.4847
v 0.273474 -0.5 0.418583
v 0.122743 -0.5 0.4847
v 0 -0.5 0
v 0.122743 -0.5 0.4847
v 0 0.5 0
v -0.0412897 -0.5 0.498292
v 0.122743 -0.5 0.4847
v -0.0412897 -0.5 0.498292
v 0 -0.5 0
v -0.0412897 -0.5 0.498292
v 0 0.5 0
v -0.200848 -0.5 0.457887
v -0.0412897 -0.5 0.498292
v -0.200848 -0.5 0.457887
v 0 -0.5 0
v -0.200848 -0.5 0.457887
v 0 0.5 0
v -0.338641 -0.5 0.367862
v -0.200848 -0.5 0.457887
v -0.338641 -0.5 0.367862
v 0 -0.5 0
v -0.338641 -0.5 0.367862
v 0 0.5 0
v -0.439737 -0.5 0.237974
v -0.338641 -0.5 0.367862
v -0.439737 -0.5 0.237974
v 0 -0.5 0
v -0.439737 -0.5 0.237974
v 0 0.5 0
v -0.493181 -0.5 0.0822973
v -0.439737 -0.5 0.237974
v -0.493181 -0.5 0.0822973
v 0 -0.5 0
v -0.493181 -0.5 0.0822973
v 0 0.5 0
v -0.493181 -0.5 -0.0822973
v -0.493181 -0.5 0.0822973
v -0.493181 -0.5 -0.0822973
v 0 -0.5 0
v -0.493181 -0.5 -0.0822973
v 0 0.5 0
v -0.439737 -0.5 -0.237974
v -0.493181 -0.5 -0.0822973
v -0.439737 -0.5 -0.237974
v 0 -0.5 0
v -0.439737 -0.5 -0.237974
v 0 0.5 0
v -0.338641 -0.5 -0.367862
v -0.439737 -0.5 -0.237974
v -0.338641 -0.5 -0.367862
v 0 -0.5 0
v -0.338641 -0.5 -0.367862
v 0 0.5 0
v -0.200848 -0.5 -0.457887
v -0.338641 -0.5 -0.367862
v -0.200848 -0.5 -0.457887
v 0 -0.5 0
v -0.200848 -0.5 -0.457887
v 0 0.5 0
v -0.0412895 -0.5 -0.498292
v -0.200848 -0.5 -0.457887
v -0.0412895 -0.5 -0.498292
v 0 -0.5 0
v -0.0412895 -0.5 -0.498292
v 0 0.5 0
v 0.122743 -0.5 -0.4847
v -0.0412895 -0.5 -0.498292
v 0.122743 -0.5 -0.4847
v 0 -0.5 0
v 0.122743 -0.5 -0.4847
v 0 0.5 0
v 0.273474 -0.5 -0.418583
v 0.122743 -0.5 -0.4847
v 0.273474 -0.5 -0.418583
v 0 -0.5 0
v 0.273474 -0.5 -0.418583
v 0 0.5 0
v 0.394571 -0.5 -0.307106
v 0.273474 -0.5 -0.418583
v 0.394571 -0.5 -0.307106
v 0 -0.5 0
v 0.394571 -0.5 -0.307106
v 0 0.5 0
v 0.472909 -0.5 -0.162349
v 0.394571 -0.5 -0.307106
v 0.472909 -0.5 -0.162349
v 0 -0.5 0
v 0.472909 -0.5 -0.162349
v 0 0.5 0
v 0.5 -0.5 8.02679e-07
v 0.472909 -0.5 -0.162349
v 0.5 -0.5 8.02679e-07
v 0 -0.5 0
vt 0 0
vt 0.0263158 1
vt 0.0526316 0
vt 0 0
vt 0.0526316 0
vt 0.0263158 0
vt 0.0526316 0
vt 0.0789474 1
vt 0.105263 0
vt 0.0526316 0
vt 0.105263 0
vt 0.0789474 0
vt 0.105263 0
vt 0.131579 1
vt 0.157895 0
vt 0.105263 0
vt 0.157895 0
vt 0.131579 0
vt 0.157895 0
vt 0.184211 1
vt 0.210526 0
vt 0.157895 0
vt 0.210526 0
vt 0.184211 0
vt 0.210526 0
vt 0.236842 1
vt 0.263158 0
vt 0.210526 0
vt 0.263158 0
vt 0.236842 0
vt 0.263158 0
vt 0.289474 1
vt 0.315789 0
vt 0.263158 0
vt 0.315789 0
vt 0.289474 0
vt 0.315789 0
vt 0.342105 1
vt 0.368421 0
vt 0.315789 0
vt 0.368421 0
vt 0.342105 0
vt 0.368421 0
vt 0.394737 1
vt 0.421053 0
vt 0.368421 0
vt 0.421053 0
vt 0.394737 0
vt 0.421053 0
vt 0.447368 1
vt 0.473684 0
vt 0.421053 0
vt 0.473684 0
vt 0.447368 0
vt 0.473684 0
vt 0.5 1
vt 0.526316 0
vt 0.473684 0
vt 0.526316 0
vt 0.5 0
vt 0.526316 0
vt 0.552632 1
vt 0.578947 0
vt 0.526316 0
vt 0.578947 0
vt 0.552632 0
vt 0.578947 0
vt 0.605263 1
vt 0.631579 0
vt 0.578947 0
vt 0.631579 0
vt 0.605263 0
vt 0.631579 0
vt 0.657895 1
vt 0.684211 0
vt 0.631579 0
vt 0.684211 0
vt 0.657895 0
vt 0.684211 0
vt 0.710526 1
vt 0.736842 0
vt 0.684211 0
vt 0.736842 0
vt 0.710526 0
vt 0.736842 0
vt 0.763158 1
vt 0.789474 0
vt 0.736842 0
vt 0.789474 0
vt 0.763158 0
vt 0.789474 0
vt 0.81579 1
vt 0.842105 0
vt 0.789474 0
vt 0.842105 0
vt 0.81579 0
vt 0.842105 0
vt 0.868421 1
vt 0.894737 0
vt 0.842105 0
vt 0.894737 0
vt 0.868421 0
vt 0.894737 0
vt 0.921053 1
vt 0.947369 0
vt 0.894737 0
vt 0.947369 0
vt 0.921053 0
vt 0.947369 0
vt 0.973684 1
vt 1 0
vt 0.947369 0
vt 1 0
vt 0.973684 0
vn 0.884628 0.442314 0.147618
vn 0.884628 0.442314 0.147618
vn 0.884628 0.442314 0.147618
vn 0 -1 0
vn 0 -1 0
vn 0 -1 0
vn 0.788765 0.442314 0.426858
vn 0.788765 0.442314 0.426858
vn 0.788765 0.442314 0.426858
vn 0 -1 0
vn 0 -1 0
vn 0 -1 0
vn 0.607427 0.442314 0.659841
vn 0.607427 0.442314 0.659841
vn 0.607427 0.442314 0.659841
vn 0 -1 0
vn 0 -1 0
vn 0 -1 0
vn 0.360265 0.442314 0.821321
vn 0.360265 0.442314 0.821321
vn 0.360265 0.442314 0.821321
vn 0 -1 0
vn 0 -1 0
vn 0 -1 0
vn 0.074062 0.442314 0.893797
vn 0.074062 0.442314 0.893797
vn 0.074062 0.442314 0.893797
vn 0 -1 0
vn 0 -1 0
vn 0 -1 0
vn -0.220166 0.442314 0.869417
vn -0.220166 0.442314 0.869417
vn -0.220166 0.442314 0.869417
vn 0 -1 0
vn 0 -1 0
vn 0 -1 0
vn -0.490536 0.442314 0.750821
vn -0.490536 0.442314 0.750821
vn -0.490536 0.442314 0.750821
vn 0 -1 0
vn 0 -1 0
vn 0 -1 0
vn -0.707749 0.442314 0.550863
vn -0.707749 0.442314 0.550863
vn -0.707749 0.442314 0.550863
vn 0 -1 0
vn 0 -1 0
vn 0 -1 0
vn -0.848266 0.442314 0.29121
vn -0.848266 0.442314 0.29121
vn -0.848266 0.442314 0.29121
vn 0 -1 0
vn 0 -1 0
vn 0 -1 0
vn -0.89686 0.442314 0
vn -0.89686 0.442314 0
vn -0.89686 0.442314 0
vn 0 -1 0
vn 0 -1 0
vn 0 -1 0
vn -0.848266 0.442314 -0.29121
vn -0.848266 0.442314 -0.29121
vn -0.848266 0.442314 -0.29121
vn 0 -1 0
vn 0 -1 0
vn 0 -1 0
vn -0.707749 0.442314 -0.550863
vn -0.707749 0.442314 -0.550863
vn -0.707749 0.442314 -0.550863
vn 0 -1 0
vn 0 -1 0
vn 0 -1 0
vn -0.490536 0.442314 -0.750821
vn -0.490536 0.442314 -0.750821
vn -0.490536 0.442314 -0.750821
vn 0 -1 0
vn 0 -1 0
vn 0 -1 0
vn -0.220166 0.442314 -0.869417
vn -0.220166 0.442314 -0.869417
vn -0.220166 0.442314 -0.869417
vn 0 -1 0
vn 0 -1 0
vn 0 -1 0
vn 0.0740626 0.442314 -0.893797
vn 0.0740626 0.442314 -0.893797
vn 0.0740626 0.442314 -0.893797
vn 0 -1 0
vn 0 -1 0
vn 0 -1 0
vn 0.360265 0.442314 -0.82132
vn 0.360265 0.442314 -0.82132
vn 0.360265 0.442314 -0.82132
vn 0 -1 0
vn 0 -1 0
vn 0 -1 0
vn 0.607428 0.442314 -0.659841
vn 0.607428 0.442314 -0.659841
vn 0.607428 0.442314 -0.659841
vn 0 -1 0
vn 0 -1 0
vn 0 -1 0
vn 0.788765 0.442314 -0.426857
vn 0.788765 0.442314 -0.426857
vn 0.788765 0.442314 -0.426857
vn 0 -1 0
vn 0 -1 0
vn 0 -1 0
vn 0.884628 0.442314 -0.147617
vn 0.884628 0.442314 -0.147617
vn 0.884628 0.442314 -0.147617
vn 0 -1 0
vn 0 -1 0
vn 0 -1 0
f 1/1/1 2/2/2 3/3/3
f 4/4/4 5/5/5 6/6/6
f 7/7/7 8/8/8 9/9/9
f 10/10/10 11/11/11 12/12/12
f 13/13/13 14/14/14 15/15/15
f 16/16/16 17/17/17 18/18/18
f 19/19/19 20/20/20 21/21/21
f 22/22/22 23/23/23 24/24/24
f 25/25/25 26/26/26 27/27/27
f 28/28/28 29/29/29 30/30/30
f 31/31/31 32/32/32 33/33/33
f 34/34/34 35/35/35 36/36/36
f 37/37/37 38/38/38 39/39/39
f 40/40/40 41/41/41 42/42/42
f 43/43/43 44/44/44 45/45/45
f 46/46/46 47/47/47 48/48/48
f 49/49/49 50/50/50 51/51/51
f 52/52/52 53/53/53 54/54/54
f 55/55/55 56/56/56 57/57/57
f 58/58/58 59/59/59 60/60/60
f 61/61/61 62/62/62 63/63/63
f 64/64/64 65/65/65 66/66/66
f 67/67/67 68/68/68 69/69/69
f 70/70/70 71/71/71 72/72/72
f 73/73/73 74/74/74 75/75/75
f 76/76/76 77/77/77 78/78/78
f 79/79/79 80/80/80 81/81/81
f 82/82/82 83/83/83 84/84/84
f 85/85/85 86/86/86 87/87/87
f 88/88/88 89/89/89 90/90/90
f 91/91/91 92/92/92 93/93/93
f 94/94/94 95/95/95 96/96/96
f 97/97/97 98/98/98 99/99/99
f 100/100/100 101/101/101 102/102/102
f 103/103/103 104/104/104 105/105/105
f 106/106/106 107/107/107 108/108/108
f 109/109/109 110/110/110 111/111/111
f 112/112/112 113/113/113 114/114/114
